<svg width="288" height="225" viewBox="0 0 288 225" fill="none" xmlns="http://www.w3.org/2000/svg">
<g clip-path="url(#clip0_103_4801)">
<path d="M29.336 192.809C26.5748 194.356 24.452 196.407 22.9723 198.95C21.4877 201.499 20.7478 204.41 20.7478 207.683C20.7478 212.746 22.3726 216.895 25.6319 220.135C28.8815 223.375 33.0643 224.995 38.1757 224.995C40.9465 224.995 43.4127 224.541 45.5694 223.622C47.731 222.708 50.0231 221.064 52.4506 218.694L48.2097 214.27C46.406 216.059 44.757 217.292 43.2531 217.974C41.7492 218.651 40.0906 218.989 38.2772 218.989C36.1495 218.989 34.2152 218.506 32.4744 217.534C30.7335 216.567 29.3892 215.232 28.4366 213.53C27.484 211.828 27.0052 209.884 27.0052 207.693C27.0052 204.55 28.0787 201.905 30.2306 199.753C32.3777 197.606 35.0228 196.532 38.166 196.532C41.8846 196.532 45.2309 198.104 48.2097 201.247L52.5812 197.079C50.763 194.966 48.6014 193.341 46.0917 192.195C43.582 191.049 40.9707 190.478 38.2627 190.478C35.076 190.478 32.102 191.252 29.3409 192.804" fill="white"/>
<path d="M65.3813 217.379C64.1095 216.025 63.476 214.294 63.476 212.195C63.476 210.096 64.0998 208.399 65.3426 207.069C66.5902 205.735 68.157 205.072 70.0429 205.072C71.9288 205.072 73.5681 205.73 74.8302 207.04C76.0924 208.351 76.721 210.062 76.721 212.176C76.721 214.289 76.0924 216.083 74.8302 217.413C73.5681 218.747 71.982 219.41 70.0671 219.41C68.1521 219.41 66.6482 218.733 65.3813 217.379ZM60.7245 203.036C58.5098 205.435 57.4024 208.51 57.4024 212.263C57.4024 216.015 58.5485 218.907 60.8357 221.344C63.1279 223.781 65.8407 224.995 68.9839 224.995C70.3814 224.995 71.6774 224.744 72.8766 224.246C74.071 223.748 75.2655 222.93 76.455 221.799V224.366H82.5528V200.062H76.455V202.746C75.367 201.644 74.1871 200.817 72.9056 200.265C71.6242 199.714 70.2557 199.438 68.8001 199.438C65.6328 199.438 62.9393 200.638 60.7245 203.036Z" fill="white"/>
<path d="M96.3055 201.006C96.1846 201.088 95.6189 201.47 95.0386 202.161C94.5695 202.722 94.2552 203.283 94.0521 203.752V200.691H88.8247V224.995H94.879V215.164L94.8548 213.98C94.8548 210.585 95.1788 208.307 95.8268 207.147C96.0928 206.668 96.8761 205.483 98.2059 205.406C99.4487 205.333 100.319 206.291 100.464 206.455C101.692 205.285 102.921 204.12 104.154 202.954C103.883 202.48 103.264 201.552 102.099 200.865C101.751 200.657 100.759 200.082 99.3859 200.067C99.1634 200.067 98.5831 200.072 97.8723 200.275C97.6257 200.348 97.0019 200.541 96.3055 201.006Z" fill="white"/>
<path d="M259.409 201.006C259.288 201.088 258.722 201.47 258.142 202.161C257.673 202.722 257.358 203.283 257.155 203.752V200.691H251.928V224.995H257.982V215.164L257.958 213.98C257.958 210.585 258.282 208.307 258.93 207.147C259.196 206.668 259.979 205.483 261.309 205.406C262.552 205.333 263.422 206.291 263.567 206.455C264.796 205.285 266.024 204.12 267.257 202.954C266.986 202.48 266.367 201.552 265.202 200.865C264.854 200.657 263.862 200.082 262.494 200.067C262.267 200.067 261.686 200.072 260.975 200.275C260.734 200.348 260.105 200.541 259.409 201.006Z" fill="white"/>
<path d="M116.582 198.167H118.704C122.592 198.167 125.412 199.032 127.172 200.759C129.125 202.683 130.097 205.387 130.097 208.878C130.097 211.146 129.686 213.051 128.869 214.603C128.052 216.151 126.993 217.258 125.707 217.916C124.415 218.573 122.341 218.902 119.483 218.902H116.577V198.172L116.582 198.167ZM110.373 192.137V225H117.897C122.152 225 125.141 224.734 126.867 224.197C128.593 223.661 130.194 222.693 131.679 221.291C133.158 219.889 134.319 218.129 135.16 216.006C136.002 213.883 136.422 211.557 136.422 209.023C136.422 205.464 135.673 202.355 134.169 199.685C132.665 197.021 130.755 195.091 128.434 193.911C126.113 192.727 122.563 192.137 117.791 192.137H110.382H110.373Z" fill="white"/>
<path d="M149.184 217.36C147.936 216.049 147.317 214.337 147.317 212.224C147.317 210.111 147.946 208.481 149.208 207.161C150.47 205.846 152.047 205.183 153.942 205.183C155.838 205.183 157.472 205.836 158.72 207.142C159.967 208.443 160.586 210.14 160.586 212.224C160.586 214.308 159.953 216.015 158.686 217.34C157.419 218.665 155.828 219.328 153.918 219.328C152.008 219.328 150.431 218.675 149.184 217.364M145.417 202.756C142.632 205.29 141.239 208.452 141.239 212.248C141.239 215.793 142.472 218.806 144.933 221.286C147.399 223.767 150.373 225.005 153.855 225.005C156.225 225.005 158.391 224.444 160.359 223.317C162.322 222.19 163.88 220.633 165.016 218.636C166.157 216.644 166.723 214.497 166.723 212.205C166.723 209.913 166.157 207.804 165.026 205.841C163.894 203.873 162.318 202.321 160.301 201.17C158.285 200.024 156.128 199.448 153.831 199.448C150.659 199.448 147.854 200.551 145.412 202.756" fill="white"/>
<path d="M178.242 201.141C176.133 202.272 174.494 203.829 173.314 205.812C172.134 207.795 171.549 209.961 171.549 212.311C171.549 215.706 172.758 218.67 175.181 221.204C177.603 223.738 180.95 225 185.224 225C189.973 225 193.653 223.303 196.259 219.918L191.453 216.625C189.929 218.486 187.807 219.42 185.079 219.42C182.874 219.42 181.09 218.767 179.736 217.456C178.377 216.151 177.7 214.458 177.7 212.393C177.7 210.329 178.406 208.525 179.813 207.166C181.22 205.807 183.068 205.125 185.35 205.125C186.602 205.125 187.695 205.319 188.629 205.706C189.562 206.092 190.505 206.784 191.457 207.78L196.535 204.99C195.312 203.215 193.745 201.852 191.82 200.889C189.9 199.927 187.734 199.448 185.321 199.448C182.715 199.448 180.36 200.014 178.251 201.146" fill="white"/>
<path d="M229.418 217.36C228.17 216.049 227.551 214.337 227.551 212.224C227.551 210.111 228.18 208.481 229.442 207.161C230.699 205.846 232.28 205.183 234.176 205.183C236.072 205.183 237.706 205.836 238.954 207.142C240.201 208.443 240.82 210.14 240.82 212.224C240.82 214.308 240.187 216.015 238.92 217.34C237.648 218.665 236.062 219.328 234.152 219.328C232.242 219.328 230.665 218.675 229.418 217.364M225.651 202.756C222.865 205.29 221.473 208.452 221.473 212.248C221.473 215.793 222.706 218.806 225.167 221.286C227.633 223.767 230.607 225.005 234.089 225.005C236.458 225.005 238.625 224.444 240.593 223.317C242.556 222.19 244.113 220.633 245.25 218.636C246.391 216.644 246.957 214.497 246.957 212.205C246.957 209.913 246.391 207.804 245.259 205.841C244.128 203.873 242.551 202.321 240.535 201.17C238.518 200.024 236.362 199.448 234.07 199.448C230.897 199.448 228.088 200.551 225.651 202.756Z" fill="white"/>
<path d="M217.372 200.691H212.038V191.735H205.94V200.691H201.095V205.943H205.94V225H212.038V205.943H217.372V200.691Z" fill="white"/>
<path d="M192.236 65.7606H192.125L192.004 65.6059C190.66 63.8699 189.199 62.1774 187.647 60.5671C185.326 58.1589 182.821 55.9587 180.181 53.9857C180.123 53.9422 180.06 53.9084 180.007 53.8648C178.208 52.2981 171.128 48.4198 170.901 48.3183C162.482 44.1354 153.439 41.998 144 41.998C136.2 41.998 127.704 43.9662 120.368 46.9353L120.257 46.9788C119.464 47.3028 117.916 48.0137 117.916 48.0282L114.309 49.6481L116.78 56.4374L118.796 55.4945C118.796 55.4945 118.796 55.509 118.796 55.5138C119.159 55.3301 119.536 55.1511 119.909 54.9722L120.59 54.6531C127.699 51.3793 136.321 49.1597 143.995 49.1597C153.048 49.1597 161.994 51.4905 169.885 55.891C169.992 55.949 170.103 56.0022 170.205 56.0651C170.737 56.3649 171.259 56.6695 171.776 56.9839C171.776 56.9839 171.776 56.979 171.776 56.9742C174.653 58.7295 177.197 60.7799 178.391 61.7905C179.847 63.0236 181.254 64.3293 182.589 65.722C180.843 67.9851 176.472 71.3749 173.976 73.227C167.429 77.8789 165.35 77.7338 165.35 77.7338L160.069 80.0936L158.821 88.4304L164.498 86.2011C165.209 85.94 165.915 85.6692 166.617 85.3791C166.602 85.3984 166.587 85.4177 166.573 85.4371C174.542 82.231 181.83 77.318 187.792 71.0799C189.277 69.5325 190.693 67.8884 191.999 66.1959L192.236 65.896L192.178 65.8235L192.236 65.7461V65.7606Z" fill="white"/>
<path d="M137.723 65.9299C137.723 62.4675 140.542 59.6483 144.005 59.6483C147.467 59.6483 150.281 62.4675 150.281 65.9299C150.281 69.3922 147.467 72.2114 144.005 72.2114C140.542 72.2114 137.723 69.3922 137.723 65.9299ZM131.04 65.9299C131.04 73.0722 136.858 78.8895 144.005 78.8895C151.152 78.8895 156.955 73.077 156.955 65.9299C156.955 58.7827 151.147 52.9702 144.005 52.9702C136.862 52.9702 131.04 58.7827 131.04 65.9299Z" fill="white"/>
<path d="M81.4793 132.629C80.8216 132.692 80.3816 133.17 80.3816 133.76L80.3719 136.478C80.3622 137.063 80.8071 137.552 81.3971 137.605L90.1255 138.693L90.14 135.158L90.1545 131.628L81.4793 132.629ZM189.373 130.327C188.774 130.327 188.285 130.816 188.285 131.415V138.901C188.285 139.5 188.774 139.989 189.373 139.989H200.79C203.46 139.989 205.621 137.827 205.621 135.158C205.621 132.489 203.46 130.327 200.79 130.327H189.373ZM158.028 126.666C156.616 126.666 155.461 127.822 155.461 129.234V141.082C155.461 142.508 156.616 143.654 158.028 143.654H177.448C182.139 143.654 185.945 139.849 185.945 135.158C185.945 130.467 182.134 126.666 177.448 126.666H158.028ZM128.637 125.898V144.428C128.637 145.622 129.599 146.58 130.789 146.58C131.978 146.58 132.95 145.622 132.95 144.428V125.898C132.95 124.708 131.983 123.746 130.789 123.746C129.594 123.746 128.637 124.708 128.637 125.898ZM148.579 123.103V146.952C148.579 148.258 149.542 149.322 150.736 149.322C151.93 149.322 152.888 148.258 152.888 146.952V123.103C152.888 121.792 151.926 120.743 150.736 120.743C149.546 120.743 148.579 121.797 148.579 123.103ZM93.1671 120.395V149.931C93.1671 151.125 94.1294 152.088 95.319 152.088C96.5086 152.088 97.4757 151.125 97.4757 149.931V120.395C97.4757 119.205 96.5134 118.243 95.319 118.243C94.1246 118.243 93.1671 119.205 93.1671 120.395ZM115.523 122.527V147.798C115.523 150.589 117.781 152.847 120.566 152.847C123.352 152.847 125.61 150.589 125.61 147.798V122.527C125.61 119.747 123.352 117.484 120.566 117.484C117.781 117.484 115.523 119.742 115.523 122.527ZM135.77 122.527V147.798C135.77 150.589 138.028 152.847 140.813 152.847C143.599 152.847 145.862 150.589 145.862 147.798V122.527C145.862 119.747 143.603 117.484 140.813 117.484C138.023 117.484 135.77 119.742 135.77 122.527ZM108.163 115.83V154.631C108.163 156.193 109.125 157.46 110.319 157.46C111.514 157.46 112.471 156.188 112.471 154.631V115.83C112.471 114.258 111.509 112.991 110.319 112.991C109.13 112.991 108.163 114.258 108.163 115.83ZM100.604 108.973V161.353C100.604 162.543 101.572 163.51 102.756 163.51C103.941 163.51 104.918 162.543 104.918 161.353V108.973C104.918 107.788 103.951 106.821 102.756 106.821C101.562 106.821 100.604 107.788 100.604 108.973Z" fill="white"/>
<path d="M159.363 80.5388C150.746 82.6859 140.252 82.8068 131.534 80.7951C131.534 80.8 131.538 80.8048 131.543 80.8096C131.495 80.7951 131.442 80.7806 131.393 80.7661C127.747 79.9295 117.607 75.2728 117.123 74.9875C112.824 72.4632 108.878 69.3781 105.406 65.7271C106.939 64.112 110.01 61.5684 112.283 59.7599C111.48 56.6263 111.074 53.604 110.885 51.752C107.447 54.223 102.935 57.8933 100.353 60.5674C98.8007 62.1777 97.3403 63.8702 96.0057 65.6062L95.7687 65.9109L96.0057 66.2107C97.3065 67.9032 98.7233 69.5425 100.208 71.0947C107.012 78.208 115.518 83.5998 124.802 86.6995C124.851 86.714 124.894 86.7334 124.938 86.7527C125.842 87.0525 126.756 87.3281 127.679 87.5844C133.729 89.3543 140.194 89.6106 140.276 89.6783C141.539 89.7702 142.786 89.8282 144.01 89.8282C145.528 89.8282 148.323 89.746 150.48 89.6154C150.48 89.6154 152.288 88.2905 155.34 85.1763C157.496 82.976 157.767 82.6133 159.373 80.5437" fill="white"/>
<path d="M171.781 56.9791C171.781 56.9791 171.781 56.984 171.781 56.9888C171.264 56.6745 170.741 56.365 170.209 56.0652C170.108 56.0072 169.997 55.954 169.89 55.8959C169.89 55.8959 169.881 55.8911 169.876 55.8911C168.077 64.4841 164.344 72.7048 159.015 79.7166L158.913 79.852C156.655 82.8018 154.116 85.5436 151.384 88.0146C150.992 88.3628 150.557 88.6916 150.156 89.035C148.231 90.6646 146.22 92.2265 144.068 93.624C142.109 92.3474 140.267 90.9354 138.497 89.4605C135.054 89.0398 129.614 88.2322 125.508 86.9991C129.038 91.1772 133.071 94.9297 137.53 98.1551C139.599 99.6541 141.761 101.042 143.966 102.28L144.213 102.415L144.459 102.28C146.626 101.056 148.753 99.7025 150.775 98.2373C155.577 94.7798 159.9 90.7081 163.623 86.1432C163.652 86.1094 163.686 86.0707 163.72 86.032C166.312 82.8404 168.609 79.4264 170.553 75.8819C170.828 75.3693 171.07 74.8374 171.336 74.3151C173.609 69.8953 175.384 65.2192 176.622 60.3593C175.321 59.3438 173.623 58.1059 171.786 56.9888" fill="white"/>
<path d="M276.841 86.7526C282.562 86.7526 287.195 82.12 287.195 76.4042C287.195 70.6884 282.562 66.051 276.841 66.051C272.504 66.051 268.795 68.7348 267.262 72.5259H243.19L223.528 43.4586C220.157 38.4682 215.878 32.1382 215.578 31.6982C211.796 26.611 205.636 23.5742 199.093 23.5742H87.6593C80.7394 23.5742 74.395 26.8818 70.599 32.5203L45.376 72.5211H20.7381C19.2004 68.7299 15.4962 66.0461 11.1586 66.0461C5.438 66.0461 0.810242 70.6787 0.810242 76.3993C0.810242 82.12 5.438 86.7477 11.1586 86.7477C15.4237 86.7477 19.0795 84.1655 20.6656 80.4758H30.5884C15.1674 88.7787 4.65945 105.056 4.65945 123.77V142.508C4.65945 162.465 20.8977 178.713 40.8546 178.713H247.924C267.881 178.713 284.114 162.47 284.114 142.508V123.77C284.114 105.056 273.606 88.7787 258.185 80.4758H267.334C268.92 84.1606 272.576 86.7477 276.841 86.7477M276.329 123.775V142.513C276.329 158.176 263.587 170.927 247.924 170.927H40.8498C25.187 170.927 12.4401 158.181 12.4401 142.513V123.775C12.4401 104.021 26.3475 87.4876 44.8828 83.3821C45.6226 83.2177 46.3818 83.0871 47.141 82.971L56.9091 91.1869V119.761C54.9942 122.827 53.0744 125.888 51.1788 128.968C49.8587 131.11 49.4815 133.49 49.8007 135.961C50.1101 138.398 51.1111 140.559 52.8326 142.324C55.5696 145.124 58.8966 146.299 62.7893 145.753C65.7681 145.332 68.2005 143.901 70.0574 141.546C71.924 139.171 72.7364 136.468 72.4559 133.451C72.306 131.908 71.9481 130.438 71.1309 129.108C69.2837 126.101 67.4268 123.093 65.565 120.095V87.1636L52.6247 76.2833L53.6789 74.6101L77.4125 36.9739C79.6224 33.6808 83.4571 31.7224 87.6545 31.7224H110.595C109.831 35.7989 109.444 39.943 109.444 44.1114C109.444 46.7614 109.628 49.5419 109.981 52.3611C109.991 52.4627 109.995 52.5642 110.005 52.6658C110.295 54.953 110.701 57.2355 111.224 59.4599C111.286 59.7162 111.369 59.9628 111.432 60.2143C112.539 64.7211 114.41 70.1951 116.48 74.6246C120.537 77.1247 125.837 79.0493 128.676 79.9874C123.893 73.4447 120.155 65.4272 118.308 57.5353C118.264 57.3467 117.259 52.6754 116.872 48.5071L116.949 48.4732C116.949 48.4297 116.944 48.3862 116.939 48.3378C116.833 46.8242 116.77 45.417 116.77 44.1211C116.77 39.9672 117.21 35.8182 118.085 31.732H169.634C170.5 35.8085 170.944 39.9624 170.944 44.1211C170.944 45.064 170.911 46.8339 170.857 48.3088C170.872 48.3136 170.886 48.3233 170.901 48.3281C171.075 48.4103 175.398 50.775 178.154 52.5545C178.411 49.8175 178.546 46.389 178.546 44.1162C178.546 39.9576 178.154 35.8085 177.39 31.7272H199.093C203.078 31.7272 206.796 33.5309 208.909 36.3646C208.963 36.4565 213.349 42.9315 216.792 48.0235L234.761 74.6053L235.907 76.2978L223.044 87.1201V120.046C221.182 123.049 219.321 126.052 217.478 129.06C216.666 130.39 216.303 131.865 216.163 133.402C215.878 136.42 216.69 139.133 218.557 141.497C220.409 143.857 222.846 145.284 225.825 145.704C229.713 146.246 233.049 145.071 235.777 142.276C237.503 140.506 238.504 138.349 238.813 135.912C239.123 133.436 238.755 131.062 237.435 128.925C235.535 125.844 233.62 122.783 231.7 119.717V91.1434L241.439 82.9517C242.261 83.0774 243.078 83.208 243.881 83.3869C262.412 87.4876 276.329 104.021 276.329 123.784" fill="white"/>
<path d="M264.389 11.2623C265.086 9.96149 266.053 8.95083 267.296 8.23515C268.534 7.51946 269.955 7.16162 271.551 7.16162C273.621 7.16162 275.328 7.66453 276.667 8.66552C278.007 9.67135 278.896 11.064 279.327 12.8436H276.314C276.029 11.8184 275.468 11.0108 274.641 10.416C273.809 9.82125 272.779 9.52628 271.551 9.52628C269.955 9.52628 268.664 10.0727 267.678 11.1704C266.696 12.2681 266.203 13.8204 266.203 15.8272C266.203 17.834 266.696 19.4249 267.678 20.5275C268.659 21.6349 269.95 22.1861 271.551 22.1861C272.779 22.1861 273.805 21.9008 274.627 21.3254C275.444 20.7499 276.01 19.9327 276.319 18.8688H279.332C278.882 20.5903 277.978 21.9685 276.629 23.0034C275.275 24.0382 273.587 24.5556 271.556 24.5556C269.96 24.5556 268.538 24.1978 267.3 23.4821C266.063 22.7664 265.091 21.7509 264.394 20.4404C263.698 19.13 263.35 17.5922 263.35 15.832C263.35 14.0718 263.698 12.5679 264.394 11.2671L264.389 11.2623Z" fill="white"/>
<path d="M271.333 31.7173C262.591 31.7173 255.472 24.604 255.472 15.8562C255.472 7.10847 262.591 0 271.333 0C280.076 0 287.195 7.11331 287.195 15.8611C287.195 24.6088 280.081 31.7222 271.333 31.7222V31.7173ZM271.333 2.20508C263.804 2.20508 257.677 8.3319 257.677 15.8611C257.677 23.3903 263.804 29.5171 271.333 29.5171C278.863 29.5171 284.989 23.3903 284.989 15.8611C284.989 8.3319 278.863 2.20508 271.333 2.20508Z" fill="white"/>
</g>
<defs>
<clipPath id="clip0_103_4801">
<rect width="286.389" height="225" fill="white" transform="translate(0.80542)"/>
</clipPath>
</defs>
</svg>
