<svg width="215" height="190" viewBox="0 0 215 190" fill="none" xmlns="http://www.w3.org/2000/svg">
<g filter="url(#filter0_d_2018_9743)">
<path d="M6 86.7713L50.75 11.6251L140.25 11.6251L185 86.7713L140.25 161.917L50.75 161.917L6 86.7713Z" fill="#0085FF" fill-opacity="0.3"/>
<path d="M50.8921 161.667L6.29097 86.7713L50.8921 11.8751L140.108 11.8751L184.709 86.7713L140.108 161.667L50.8921 161.667Z" stroke="url(#paint0_linear_2018_9743)" stroke-width="0.5"/>
</g>
<g filter="url(#filter1_d_2018_9743)">
<path d="M17 86.7713L56.25 20.9128L134.75 20.9128L174 86.7712L134.75 152.63L56.25 152.63L17 86.7713Z" fill="url(#paint1_linear_2018_9743)"/>
<path d="M56.8181 151.63L18.1641 86.7713L56.8181 21.9128L134.182 21.9128L172.836 86.7712L134.182 151.63L56.8181 151.63Z" stroke="url(#paint2_linear_2018_9743)" stroke-width="2"/>
</g>
<defs>
<filter id="filter0_d_2018_9743" x="0" y="3.62512" width="215" height="186.292" filterUnits="userSpaceOnUse" color-interpolation-filters="sRGB">
<feFlood flood-opacity="0" result="BackgroundImageFix"/>
<feColorMatrix in="SourceAlpha" type="matrix" values="0 0 0 0 0 0 0 0 0 0 0 0 0 0 0 0 0 0 127 0" result="hardAlpha"/>
<feOffset dx="12" dy="10"/>
<feGaussianBlur stdDeviation="9"/>
<feColorMatrix type="matrix" values="0 0 0 0 0 0 0 0 0 0.25125 0 0 0 0 0.8375 0 0 0 0.2 0"/>
<feBlend mode="normal" in2="BackgroundImageFix" result="effect1_dropShadow_2018_9743"/>
<feBlend mode="normal" in="SourceGraphic" in2="effect1_dropShadow_2018_9743" result="shape"/>
</filter>
<filter id="filter1_d_2018_9743" x="11" y="12.9128" width="193" height="167.717" filterUnits="userSpaceOnUse" color-interpolation-filters="sRGB">
<feFlood flood-opacity="0" result="BackgroundImageFix"/>
<feColorMatrix in="SourceAlpha" type="matrix" values="0 0 0 0 0 0 0 0 0 0 0 0 0 0 0 0 0 0 127 0" result="hardAlpha"/>
<feOffset dx="12" dy="10"/>
<feGaussianBlur stdDeviation="9"/>
<feColorMatrix type="matrix" values="0 0 0 0 0 0 0 0 0 0.25125 0 0 0 0 0.8375 0 0 0 0.2 0"/>
<feBlend mode="normal" in2="BackgroundImageFix" result="effect1_dropShadow_2018_9743"/>
<feBlend mode="normal" in="SourceGraphic" in2="effect1_dropShadow_2018_9743" result="shape"/>
</filter>
<linearGradient id="paint0_linear_2018_9743" x1="95.5" y1="-1.9073e-05" x2="95.5" y2="173.543" gradientUnits="userSpaceOnUse">
<stop stop-color="#47BDFF"/>
<stop offset="0.495" stop-color="white" stop-opacity="0"/>
<stop offset="1" stop-color="#448FFF"/>
</linearGradient>
<linearGradient id="paint1_linear_2018_9743" x1="95.5" y1="10.7245" x2="95.5" y2="162.818" gradientUnits="userSpaceOnUse">
<stop stop-color="#2DB3FF"/>
<stop offset="1" stop-color="#1F78FF"/>
</linearGradient>
<linearGradient id="paint2_linear_2018_9743" x1="95.5" y1="10.7245" x2="95.5" y2="162.818" gradientUnits="userSpaceOnUse">
<stop stop-color="#62ECFF"/>
<stop offset="0.495" stop-color="white" stop-opacity="0"/>
<stop offset="1" stop-color="#50D5FF"/>
</linearGradient>
</defs>
</svg>
